<svg width="147" height="44" viewBox="0 0 147 44" fill="none" xmlns="http://www.w3.org/2000/svg">
<g filter="url(#filter0_d)">
<path d="M4.00522 35H4.43722V31.076C5.51722 32.3 8.86522 35.432 13.8332 35.432C18.4412 35.432 22.6892 32.66 22.6892 27.656C22.6892 24.92 21.1412 23.372 18.4772 21.644L7.17322 14.408C5.62522 13.4 5.33722 12.5 5.26522 12.284C6.56122 9.476 9.65722 8.072 13.1852 8.072C18.1172 8.072 20.8172 11.06 20.9612 11.204V14.732H21.3932V7.748H20.9612V10.556C19.9892 9.692 17.3252 7.64 13.1852 7.64C8.32522 7.64 4.22122 10.196 4.22122 15.344C4.22122 17.864 5.33722 19.376 8.43322 21.356L19.7372 28.52C21.1052 29.384 21.5372 30.356 21.6092 30.644C20.3132 33.488 17.1812 35 13.8332 35C8.10922 35 4.65322 30.68 4.43722 30.392V27.116H4.00522V35ZM8.64922 20.996C5.58922 19.052 4.65322 17.756 4.65322 15.344C4.65322 14.408 4.79722 13.58 5.04922 12.824C5.30122 13.328 5.84122 14.084 6.95722 14.768L18.2612 22.004C20.9972 23.768 22.2572 25.028 22.2572 27.656C22.2572 28.592 22.1132 29.42 21.8252 30.176C21.5732 29.672 21.0332 28.88 19.9532 28.16L8.64922 20.996ZM9.04522 20.384L20.3492 27.548C20.7812 27.836 21.2132 28.196 21.5012 28.484C21.5372 28.268 21.5372 27.872 21.5372 27.656C21.5372 25.388 20.3132 24.2 17.8652 22.616L6.56122 15.38C6.09322 15.056 5.73322 14.768 5.40922 14.48C5.37322 14.696 5.37322 15.128 5.37322 15.344C5.37322 17.396 6.41722 18.656 9.04522 20.384ZM96.431 35H96.863V31.076C97.943 32.3 101.291 35.432 106.259 35.432C110.867 35.432 115.115 32.66 115.115 27.656C115.115 24.92 113.567 23.372 110.903 21.644L99.599 14.408C98.051 13.4 97.763 12.5 97.691 12.284C98.987 9.476 102.083 8.072 105.611 8.072C110.543 8.072 113.243 11.06 113.387 11.204V14.732H113.819V7.748H113.387V10.556C112.415 9.692 109.751 7.64 105.611 7.64C100.751 7.64 96.647 10.196 96.647 15.344C96.647 17.864 97.763 19.376 100.859 21.356L112.163 28.52C113.531 29.384 113.963 30.356 114.035 30.644C112.739 33.488 109.607 35 106.259 35C100.535 35 97.079 30.68 96.863 30.392V27.116H96.431V35ZM101.075 20.996C98.015 19.052 97.079 17.756 97.079 15.344C97.079 14.408 97.223 13.58 97.475 12.824C97.727 13.328 98.267 14.084 99.383 14.768L110.687 22.004C113.423 23.768 114.683 25.028 114.683 27.656C114.683 28.592 114.539 29.42 114.251 30.176C113.999 29.672 113.459 28.88 112.379 28.16L101.075 20.996ZM101.471 20.384L112.775 27.548C113.207 27.836 113.639 28.196 113.927 28.484C113.963 28.268 113.963 27.872 113.963 27.656C113.963 25.388 112.739 24.2 110.291 22.616L98.987 15.38C98.519 15.056 98.159 14.768 97.835 14.48C97.799 14.696 97.799 15.128 97.799 15.344C97.799 17.396 98.843 18.656 101.471 20.384Z" fill="#F57F17"/>
<path d="M26.9203 25.964H37.5043V23.228H26.9203V25.964ZM27.3523 25.532V23.66H37.0723V25.532H27.3523ZM28.0723 24.812H36.3523V24.38H28.0723V24.812ZM40.2654 35H54.5934C60.0654 35 63.1254 31.508 63.1254 27.512C63.1254 24.488 61.1454 21.932 57.9414 20.636C60.8934 19.556 62.7654 17.54 62.7654 14.768C62.7654 11.096 59.7414 8.072 54.5934 8.072H40.2654V8.504H43.6854V34.568H40.2654V35ZM48.6534 20.42V8.504H54.5934C55.4934 8.504 56.3214 8.612 57.1134 8.792V20.42H48.6534ZM44.1174 34.568V8.504H48.2214V34.568H44.1174ZM57.5454 20.348V8.9C60.5694 9.8 62.3334 12.104 62.3334 14.768C62.3334 17.396 60.4974 19.376 57.5454 20.348ZM44.8374 33.848H47.5014V9.224H44.8374V33.848ZM58.2654 19.304C60.3894 18.368 61.6134 16.82 61.6134 14.768C61.6134 12.644 60.4254 10.88 58.2654 9.944V19.304ZM48.6534 34.568V20.852H57.1134V34.28C56.3214 34.46 55.4934 34.568 54.5934 34.568H48.6534ZM57.5454 34.172V20.96C60.7134 22.112 62.6934 24.596 62.6934 27.512C62.6934 30.5 60.8574 33.164 57.5454 34.172ZM58.2654 33.128C60.6774 32.048 61.9734 29.924 61.9734 27.512C61.9734 25.244 60.5694 23.192 58.2654 22.04V33.128ZM67.1951 35H79.0031V34.568H75.5831V22.364H84.0431V30.248C84.0431 33.2 86.0591 35.432 88.7591 35.432C91.4591 35.432 93.4391 33.2 93.4391 30.428H93.0071C93.0071 32.84 91.4231 34.784 89.1911 35V28.448C89.1911 25.604 87.9311 23.264 84.9431 22.112C87.9311 20.744 89.5151 18.116 89.5151 15.308C89.5151 11.24 86.1311 8.072 80.9831 8.072H67.1951V8.504H70.6151V34.568H67.1951V35ZM75.5831 21.932V8.504H80.9831C82.0991 8.504 83.1071 8.684 84.0431 8.972V21.932H75.5831ZM71.0471 34.568V8.504H75.1511V34.568H71.0471ZM84.4751 21.896V9.116C87.3191 10.16 89.0831 12.5 89.0831 15.308C89.0831 18.044 87.4631 20.6 84.4751 21.896ZM71.7671 33.848H74.4311V9.224H71.7671V33.848ZM85.1951 20.744C87.1031 19.484 88.3631 17.396 88.3631 15.308C88.3631 13.148 87.1751 11.312 85.1951 10.232V20.744ZM84.4751 30.248V22.4C87.4631 23.444 88.7591 25.712 88.7591 28.448V35C86.2751 35 84.4751 32.984 84.4751 30.248ZM85.1951 30.248C85.1951 32.3 86.3471 33.884 88.0391 34.208V28.448C88.0391 26.36 87.0671 24.56 85.1951 23.516V30.248ZM124.386 35H136.194V34.568H132.774V8.504H142.206V14.732H142.638V8.072H117.978V14.732H118.41V8.504H127.806V34.568H124.386V35ZM128.238 34.568V8.504H132.342V34.568H128.238ZM128.958 33.848H131.622V9.224H128.958V33.848Z" fill="#2196F3"/>
</g>
<defs>
<filter id="filter0_d" x="0.00537109" y="7.64001" width="146.633" height="35.792" filterUnits="userSpaceOnUse" color-interpolation-filters="sRGB">
<feFlood flood-opacity="0" result="BackgroundImageFix"/>
<feColorMatrix in="SourceAlpha" type="matrix" values="0 0 0 0 0 0 0 0 0 0 0 0 0 0 0 0 0 0 127 0"/>
<feOffset dy="4"/>
<feGaussianBlur stdDeviation="2"/>
<feColorMatrix type="matrix" values="0 0 0 0 0 0 0 0 0 0 0 0 0 0 0 0 0 0 0.25 0"/>
<feBlend mode="normal" in2="BackgroundImageFix" result="effect1_dropShadow"/>
<feBlend mode="normal" in="SourceGraphic" in2="effect1_dropShadow" result="shape"/>
</filter>
</defs>
</svg>
