<svg width="600" height="220" viewBox="0 0 600 220" fill="none" xmlns="http://www.w3.org/2000/svg">
<g filter="url(#filter0_d)">
<path d="M117.847 117H118.999V106.536C121.879 109.8 130.807 118.152 144.055 118.152C156.343 118.152 167.671 110.76 167.671 97.416C167.671 90.12 163.543 85.992 156.439 81.384L126.295 62.088C122.167 59.4 121.399 57 121.207 56.424C124.663 48.936 132.919 45.192 142.327 45.192C155.479 45.192 162.679 53.16 163.063 53.544V62.952H164.215V44.328H163.063V51.816C160.471 49.512 153.367 44.04 142.327 44.04C129.367 44.04 118.423 50.856 118.423 64.584C118.423 71.304 121.399 75.336 129.655 80.616L159.799 99.72C163.447 102.024 164.599 104.616 164.791 105.384C161.335 112.968 152.983 117 144.055 117C128.791 117 119.575 105.48 118.999 104.712V95.976H117.847V117ZM130.231 79.656C122.071 74.472 119.575 71.016 119.575 64.584C119.575 62.088 119.959 59.88 120.631 57.864C121.303 59.208 122.743 61.224 125.719 63.048L155.863 82.344C163.159 87.048 166.519 90.408 166.519 97.416C166.519 99.912 166.135 102.12 165.367 104.136C164.695 102.792 163.255 100.68 160.375 98.76L130.231 79.656ZM131.287 78.024L161.431 97.128C162.583 97.896 163.735 98.856 164.503 99.624C164.599 99.048 164.599 97.992 164.599 97.416C164.599 91.368 161.335 88.2 154.807 83.976L124.663 64.68C123.415 63.816 122.455 63.048 121.591 62.28C121.495 62.856 121.495 64.008 121.495 64.584C121.495 70.056 124.279 73.416 131.287 78.024ZM364.316 117H365.468V106.536C368.348 109.8 377.276 118.152 390.524 118.152C402.812 118.152 414.14 110.76 414.14 97.416C414.14 90.12 410.012 85.992 402.908 81.384L372.764 62.088C368.636 59.4 367.868 57 367.676 56.424C371.132 48.936 379.388 45.192 388.796 45.192C401.948 45.192 409.148 53.16 409.532 53.544V62.952H410.684V44.328H409.532V51.816C406.94 49.512 399.836 44.04 388.796 44.04C375.836 44.04 364.892 50.856 364.892 64.584C364.892 71.304 367.868 75.336 376.124 80.616L406.268 99.72C409.916 102.024 411.068 104.616 411.26 105.384C407.804 112.968 399.452 117 390.524 117C375.26 117 366.044 105.48 365.468 104.712V95.976H364.316V117ZM376.7 79.656C368.54 74.472 366.044 71.016 366.044 64.584C366.044 62.088 366.428 59.88 367.1 57.864C367.772 59.208 369.212 61.224 372.188 63.048L402.332 82.344C409.628 87.048 412.988 90.408 412.988 97.416C412.988 99.912 412.604 102.12 411.836 104.136C411.164 102.792 409.724 100.68 406.844 98.76L376.7 79.656ZM377.756 78.024L407.9 97.128C409.052 97.896 410.204 98.856 410.972 99.624C411.068 99.048 411.068 97.992 411.068 97.416C411.068 91.368 407.804 88.2 401.276 83.976L371.132 64.68C369.884 63.816 368.924 63.048 368.06 62.28C367.964 62.856 367.964 64.008 367.964 64.584C367.964 70.056 370.748 73.416 377.756 78.024Z" fill="#F57F17"/>
<path d="M178.954 92.904H207.178V85.608H178.954V92.904ZM180.106 91.752V86.76H206.026V91.752H180.106ZM182.026 89.832H204.106V88.68H182.026V89.832ZM214.541 117H252.749C267.341 117 275.501 107.688 275.501 97.032C275.501 88.968 270.221 82.152 261.677 78.696C269.549 75.816 274.541 70.44 274.541 63.048C274.541 53.256 266.477 45.192 252.749 45.192H214.541V46.344H223.661V115.848H214.541V117ZM236.909 78.12V46.344H252.749C255.149 46.344 257.357 46.632 259.469 47.112V78.12H236.909ZM224.813 115.848V46.344H235.757V115.848H224.813ZM260.621 77.928V47.4C268.685 49.8 273.389 55.944 273.389 63.048C273.389 70.056 268.493 75.336 260.621 77.928ZM226.733 113.928H233.837V48.264H226.733V113.928ZM262.541 75.144C268.205 72.648 271.469 68.52 271.469 63.048C271.469 57.384 268.301 52.68 262.541 50.184V75.144ZM236.909 115.848V79.272H259.469V115.08C257.357 115.56 255.149 115.848 252.749 115.848H236.909ZM260.621 114.792V79.56C269.069 82.632 274.349 89.256 274.349 97.032C274.349 105 269.453 112.104 260.621 114.792ZM262.541 112.008C268.973 109.128 272.429 103.464 272.429 97.032C272.429 90.984 268.685 85.512 262.541 82.44V112.008ZM286.354 117H317.842V115.848H308.722V83.304H331.281V104.328C331.281 112.2 336.658 118.152 343.858 118.152C351.058 118.152 356.338 112.2 356.338 104.808H355.186C355.186 111.24 350.962 116.424 345.01 117V99.528C345.01 91.944 341.65 85.704 333.682 82.632C341.65 78.984 345.874 71.976 345.874 64.488C345.874 53.64 336.85 45.192 323.122 45.192H286.354V46.344H295.474V115.848H286.354V117ZM308.722 82.152V46.344H323.122C326.098 46.344 328.786 46.824 331.281 47.592V82.152H308.722ZM296.626 115.848V46.344H307.57V115.848H296.626ZM332.434 82.056V47.976C340.018 50.76 344.722 57 344.722 64.488C344.722 71.784 340.402 78.6 332.434 82.056ZM298.546 113.928H305.65V48.264H298.546V113.928ZM334.354 78.984C339.442 75.624 342.802 70.056 342.802 64.488C342.802 58.728 339.634 53.832 334.354 50.952V78.984ZM332.434 104.328V83.4C340.402 86.184 343.858 92.232 343.858 99.528V117C337.234 117 332.434 111.624 332.434 104.328ZM334.354 104.328C334.354 109.8 337.426 114.024 341.938 114.888V99.528C341.938 93.96 339.346 89.16 334.354 86.376V104.328ZM438.863 117H470.351V115.848H461.231V46.344H486.383V62.952H487.535V45.192H421.775V62.952H422.927V46.344H447.983V115.848H438.863V117ZM449.135 115.848V46.344H460.079V115.848H449.135ZM451.055 113.928H458.159V48.264H451.055V113.928Z" fill="#2196F3"/>
</g>
<path d="M106.227 151.219V152.086C105.18 152.227 104.375 152.531 103.812 153C103.031 153.656 101.797 155.445 100.109 158.367L93.2188 169.875V177.562C93.2188 179.203 93.3047 180.227 93.4766 180.633C93.6484 181.023 93.9844 181.375 94.4844 181.688C95 181.984 95.6797 182.133 96.5234 182.133H98.3047V183H80.4688V182.133H82.1328C83.0703 182.133 83.8125 181.969 84.3594 181.641C84.7656 181.422 85.0859 181.047 85.3203 180.516C85.4922 180.141 85.5781 179.156 85.5781 177.562V171.188L78.1016 157.57C76.6172 154.883 75.5703 153.305 74.9609 152.836C74.3516 152.352 73.5391 152.102 72.5234 152.086V151.219H87.7578V152.086H87.0781C86.1562 152.086 85.5078 152.219 85.1328 152.484C84.7734 152.75 84.5938 153.031 84.5938 153.328C84.5938 153.891 85.2188 155.305 86.4688 157.57L92.2109 168.094L97.9297 158.508C99.3516 156.164 100.062 154.609 100.062 153.844C100.062 153.422 99.8594 153.07 99.4531 152.789C98.9219 152.398 97.9453 152.164 96.5234 152.086V151.219H106.227ZM113.398 160.43C115.305 160.43 117.078 160.922 118.719 161.906C120.359 162.891 121.602 164.289 122.445 166.102C123.305 167.914 123.734 169.898 123.734 172.055C123.734 175.164 122.945 177.766 121.367 179.859C119.461 182.391 116.828 183.656 113.469 183.656C110.172 183.656 107.633 182.5 105.852 180.188C104.07 177.875 103.18 175.195 103.18 172.148C103.18 169.008 104.086 166.273 105.898 163.945C107.727 161.602 110.227 160.43 113.398 160.43ZM113.492 162.094C112.695 162.094 112.008 162.398 111.43 163.008C110.867 163.602 110.492 164.789 110.305 166.57C110.133 168.336 110.047 170.797 110.047 173.953C110.047 175.625 110.156 177.188 110.375 178.641C110.547 179.75 110.914 180.594 111.477 181.172C112.039 181.75 112.68 182.039 113.398 182.039C114.102 182.039 114.688 181.844 115.156 181.453C115.766 180.922 116.172 180.18 116.375 179.227C116.688 177.742 116.844 174.742 116.844 170.227C116.844 167.57 116.695 165.75 116.398 164.766C116.102 163.766 115.664 163.039 115.086 162.586C114.68 162.258 114.148 162.094 113.492 162.094ZM148.227 161.086V178.242C148.227 179.914 148.383 180.961 148.695 181.383C149.008 181.789 149.641 182.047 150.594 182.156V183H141.664V180.07C140.617 181.32 139.57 182.234 138.523 182.812C137.477 183.375 136.305 183.656 135.008 183.656C133.773 183.656 132.672 183.281 131.703 182.531C130.75 181.766 130.109 180.875 129.781 179.859C129.453 178.844 129.289 177.07 129.289 174.539V165.844C129.289 164.188 129.133 163.156 128.82 162.75C128.523 162.344 127.891 162.078 126.922 161.953V161.086H135.852V176.062C135.852 177.625 135.922 178.633 136.062 179.086C136.219 179.539 136.453 179.883 136.766 180.117C137.094 180.352 137.469 180.469 137.891 180.469C138.453 180.469 138.961 180.32 139.414 180.023C140.039 179.617 140.789 178.797 141.664 177.562V165.844C141.664 164.188 141.508 163.156 141.195 162.75C140.898 162.344 140.266 162.078 139.297 161.953V161.086H148.227ZM162.875 161.086V166.055C164.328 163.789 165.602 162.289 166.695 161.555C167.789 160.805 168.844 160.43 169.859 160.43C170.734 160.43 171.43 160.703 171.945 161.25C172.477 161.781 172.742 162.539 172.742 163.523C172.742 164.57 172.484 165.383 171.969 165.961C171.469 166.539 170.859 166.828 170.141 166.828C169.312 166.828 168.594 166.562 167.984 166.031C167.375 165.5 167.016 165.203 166.906 165.141C166.75 165.047 166.57 165 166.367 165C165.914 165 165.484 165.172 165.078 165.516C164.438 166.047 163.953 166.805 163.625 167.789C163.125 169.305 162.875 170.977 162.875 172.805V177.844L162.898 179.156C162.898 180.047 162.953 180.617 163.062 180.867C163.25 181.289 163.523 181.602 163.883 181.805C164.258 181.992 164.883 182.109 165.758 182.156V183H153.922V182.156C154.875 182.078 155.516 181.82 155.844 181.383C156.188 180.93 156.359 179.75 156.359 177.844V165.727C156.359 164.477 156.297 163.68 156.172 163.336C156.016 162.898 155.789 162.578 155.492 162.375C155.195 162.172 154.672 162.031 153.922 161.953V161.086H162.875ZM198.312 179.766C195.641 182.125 193.242 183.305 191.117 183.305C189.867 183.305 188.828 182.898 188 182.086C187.172 181.258 186.758 180.227 186.758 178.992C186.758 177.32 187.477 175.82 188.914 174.492C190.352 173.148 193.484 171.367 198.312 169.148V166.945C198.312 165.289 198.219 164.25 198.031 163.828C197.859 163.391 197.523 163.016 197.023 162.703C196.523 162.375 195.961 162.211 195.336 162.211C194.32 162.211 193.484 162.438 192.828 162.891C192.422 163.172 192.219 163.5 192.219 163.875C192.219 164.203 192.438 164.609 192.875 165.094C193.469 165.766 193.766 166.414 193.766 167.039C193.766 167.805 193.477 168.461 192.898 169.008C192.336 169.539 191.594 169.805 190.672 169.805C189.688 169.805 188.859 169.508 188.188 168.914C187.531 168.32 187.203 167.625 187.203 166.828C187.203 165.703 187.648 164.633 188.539 163.617C189.43 162.586 190.672 161.797 192.266 161.25C193.859 160.703 195.516 160.43 197.234 160.43C199.312 160.43 200.953 160.875 202.156 161.766C203.375 162.641 204.164 163.594 204.523 164.625C204.742 165.281 204.852 166.789 204.852 169.148V177.656C204.852 178.656 204.891 179.289 204.969 179.555C205.047 179.805 205.164 179.992 205.32 180.117C205.477 180.242 205.656 180.305 205.859 180.305C206.266 180.305 206.68 180.016 207.102 179.438L207.805 180C207.023 181.156 206.211 182 205.367 182.531C204.539 183.047 203.594 183.305 202.531 183.305C201.281 183.305 200.305 183.016 199.602 182.438C198.898 181.844 198.469 180.953 198.312 179.766ZM198.312 178.055V170.719C196.422 171.828 195.016 173.016 194.094 174.281C193.484 175.125 193.18 175.977 193.18 176.836C193.18 177.555 193.438 178.188 193.953 178.734C194.344 179.156 194.891 179.367 195.594 179.367C196.375 179.367 197.281 178.93 198.312 178.055ZM219.172 161.086V163.922C220.297 162.703 221.375 161.82 222.406 161.273C223.438 160.711 224.547 160.43 225.734 160.43C227.156 160.43 228.336 160.828 229.273 161.625C230.211 162.406 230.836 163.383 231.148 164.555C231.398 165.445 231.523 167.156 231.523 169.688V178.219C231.523 179.906 231.672 180.961 231.969 181.383C232.281 181.789 232.922 182.047 233.891 182.156V183H222.805V182.156C223.633 182.047 224.227 181.703 224.586 181.125C224.836 180.734 224.961 179.766 224.961 178.219V168.469C224.961 166.672 224.891 165.539 224.75 165.07C224.609 164.602 224.367 164.242 224.023 163.992C223.695 163.727 223.328 163.594 222.922 163.594C221.578 163.594 220.328 164.555 219.172 166.477V178.219C219.172 179.859 219.32 180.898 219.617 181.336C219.93 181.773 220.5 182.047 221.328 182.156V183H210.242V182.156C211.164 182.062 211.82 181.766 212.211 181.266C212.477 180.922 212.609 179.906 212.609 178.219V165.844C212.609 164.188 212.453 163.156 212.141 162.75C211.844 162.344 211.211 162.078 210.242 161.953V161.086H219.172ZM250.789 160.477L251.141 167.953H250.344C249.391 165.734 248.398 164.219 247.367 163.406C246.352 162.594 245.336 162.188 244.32 162.188C243.68 162.188 243.133 162.406 242.68 162.844C242.227 163.266 242 163.758 242 164.32C242 164.742 242.156 165.148 242.469 165.539C242.969 166.18 244.367 167.281 246.664 168.844C248.961 170.391 250.469 171.711 251.188 172.805C251.922 173.883 252.289 175.094 252.289 176.438C252.289 177.656 251.984 178.852 251.375 180.023C250.766 181.195 249.906 182.094 248.797 182.719C247.688 183.344 246.461 183.656 245.117 183.656C244.07 183.656 242.672 183.328 240.922 182.672C240.453 182.5 240.133 182.414 239.961 182.414C239.445 182.414 239.016 182.805 238.672 183.586H237.898L237.523 175.711H238.32C239.023 177.773 239.984 179.32 241.203 180.352C242.438 181.383 243.602 181.898 244.695 181.898C245.445 181.898 246.055 181.672 246.523 181.219C247.008 180.75 247.25 180.188 247.25 179.531C247.25 178.781 247.016 178.133 246.547 177.586C246.078 177.039 245.031 176.211 243.406 175.102C241.016 173.445 239.469 172.18 238.766 171.305C237.734 170.023 237.219 168.609 237.219 167.062C237.219 165.375 237.797 163.852 238.953 162.492C240.125 161.117 241.812 160.43 244.016 160.43C245.203 160.43 246.352 160.719 247.461 161.297C247.883 161.531 248.227 161.648 248.492 161.648C248.773 161.648 249 161.594 249.172 161.484C249.344 161.359 249.617 161.023 249.992 160.477H250.789ZM277.367 183.656L271.367 167.578L265.484 183.656H264.266L258.43 167.766C257.555 165.344 256.812 163.766 256.203 163.031C255.812 162.531 255.219 162.172 254.422 161.953V161.086H265.484V161.953C264.734 161.953 264.219 162.062 263.938 162.281C263.656 162.5 263.516 162.75 263.516 163.031C263.516 163.297 263.766 164.094 264.266 165.422L267.477 173.977L270.57 165.422L270.336 164.859C269.867 163.688 269.453 162.945 269.094 162.633C268.75 162.305 268.211 162.078 267.477 161.953V161.086H278.703V161.953C277.828 162 277.273 162.125 277.039 162.328C276.805 162.516 276.688 162.789 276.688 163.148C276.688 163.492 276.914 164.25 277.367 165.422L280.461 173.977L283.273 166.102C283.68 164.977 283.883 164.211 283.883 163.805C283.883 163.195 283.734 162.75 283.438 162.469C283.141 162.188 282.562 162.016 281.703 161.953V161.086H288.195V161.953C287.477 162.047 286.906 162.305 286.484 162.727C286.062 163.133 285.516 164.305 284.844 166.242L278.703 183.656H277.367ZM308.891 171.258H296.867C297.008 174.164 297.781 176.461 299.188 178.148C300.266 179.445 301.562 180.094 303.078 180.094C304.016 180.094 304.867 179.836 305.633 179.32C306.398 178.789 307.219 177.844 308.094 176.484L308.891 177C307.703 179.422 306.391 181.141 304.953 182.156C303.516 183.156 301.852 183.656 299.961 183.656C296.711 183.656 294.25 182.406 292.578 179.906C291.234 177.891 290.562 175.391 290.562 172.406C290.562 168.75 291.547 165.844 293.516 163.688C295.5 161.516 297.82 160.43 300.477 160.43C302.695 160.43 304.617 161.344 306.242 163.172C307.883 164.984 308.766 167.68 308.891 171.258ZM303.125 169.688C303.125 167.172 302.984 165.445 302.703 164.508C302.438 163.57 302.016 162.859 301.438 162.375C301.109 162.094 300.672 161.953 300.125 161.953C299.312 161.953 298.648 162.352 298.133 163.148C297.211 164.539 296.75 166.445 296.75 168.867V169.688H303.125ZM320.75 161.086V166.055C322.203 163.789 323.477 162.289 324.57 161.555C325.664 160.805 326.719 160.43 327.734 160.43C328.609 160.43 329.305 160.703 329.82 161.25C330.352 161.781 330.617 162.539 330.617 163.523C330.617 164.57 330.359 165.383 329.844 165.961C329.344 166.539 328.734 166.828 328.016 166.828C327.188 166.828 326.469 166.562 325.859 166.031C325.25 165.5 324.891 165.203 324.781 165.141C324.625 165.047 324.445 165 324.242 165C323.789 165 323.359 165.172 322.953 165.516C322.312 166.047 321.828 166.805 321.5 167.789C321 169.305 320.75 170.977 320.75 172.805V177.844L320.773 179.156C320.773 180.047 320.828 180.617 320.938 180.867C321.125 181.289 321.398 181.602 321.758 181.805C322.133 181.992 322.758 182.109 323.633 182.156V183H311.797V182.156C312.75 182.078 313.391 181.82 313.719 181.383C314.062 180.93 314.234 179.75 314.234 177.844V165.727C314.234 164.477 314.172 163.68 314.047 163.336C313.891 162.898 313.664 162.578 313.367 162.375C313.07 162.172 312.547 162.031 311.797 161.953V161.086H320.75ZM349.367 150.469C350.383 150.469 351.242 150.828 351.945 151.547C352.648 152.25 353 153.102 353 154.102C353 155.102 352.641 155.953 351.922 156.656C351.219 157.359 350.367 157.711 349.367 157.711C348.367 157.711 347.516 157.359 346.812 156.656C346.109 155.953 345.758 155.102 345.758 154.102C345.758 153.102 346.109 152.25 346.812 151.547C347.516 150.828 348.367 150.469 349.367 150.469ZM352.648 161.086V178.453C352.648 180 352.828 180.992 353.188 181.43C353.547 181.852 354.25 182.094 355.297 182.156V183H343.461V182.156C344.43 182.125 345.148 181.844 345.617 181.312C345.93 180.953 346.086 180 346.086 178.453V165.656C346.086 164.109 345.906 163.125 345.547 162.703C345.188 162.266 344.492 162.016 343.461 161.953V161.086H352.648ZM371.305 160.477L371.656 167.953H370.859C369.906 165.734 368.914 164.219 367.883 163.406C366.867 162.594 365.852 162.188 364.836 162.188C364.195 162.188 363.648 162.406 363.195 162.844C362.742 163.266 362.516 163.758 362.516 164.32C362.516 164.742 362.672 165.148 362.984 165.539C363.484 166.18 364.883 167.281 367.18 168.844C369.477 170.391 370.984 171.711 371.703 172.805C372.438 173.883 372.805 175.094 372.805 176.438C372.805 177.656 372.5 178.852 371.891 180.023C371.281 181.195 370.422 182.094 369.312 182.719C368.203 183.344 366.977 183.656 365.633 183.656C364.586 183.656 363.188 183.328 361.438 182.672C360.969 182.5 360.648 182.414 360.477 182.414C359.961 182.414 359.531 182.805 359.188 183.586H358.414L358.039 175.711H358.836C359.539 177.773 360.5 179.32 361.719 180.352C362.953 181.383 364.117 181.898 365.211 181.898C365.961 181.898 366.57 181.672 367.039 181.219C367.523 180.75 367.766 180.188 367.766 179.531C367.766 178.781 367.531 178.133 367.062 177.586C366.594 177.039 365.547 176.211 363.922 175.102C361.531 173.445 359.984 172.18 359.281 171.305C358.25 170.023 357.734 168.609 357.734 167.062C357.734 165.375 358.312 163.852 359.469 162.492C360.641 161.117 362.328 160.43 364.531 160.43C365.719 160.43 366.867 160.719 367.977 161.297C368.398 161.531 368.742 161.648 369.008 161.648C369.289 161.648 369.516 161.594 369.688 161.484C369.859 161.359 370.133 161.023 370.508 160.477H371.305ZM393.43 150.469C394.445 150.469 395.305 150.828 396.008 151.547C396.711 152.25 397.062 153.102 397.062 154.102C397.062 155.102 396.703 155.953 395.984 156.656C395.281 157.359 394.43 157.711 393.43 157.711C392.43 157.711 391.578 157.359 390.875 156.656C390.172 155.953 389.82 155.102 389.82 154.102C389.82 153.102 390.172 152.25 390.875 151.547C391.578 150.828 392.43 150.469 393.43 150.469ZM396.711 161.086V178.453C396.711 180 396.891 180.992 397.25 181.43C397.609 181.852 398.312 182.094 399.359 182.156V183H387.523V182.156C388.492 182.125 389.211 181.844 389.68 181.312C389.992 180.953 390.148 180 390.148 178.453V165.656C390.148 164.109 389.969 163.125 389.609 162.703C389.25 162.266 388.555 162.016 387.523 161.953V161.086H396.711ZM410.469 161.086V163.922C411.594 162.703 412.672 161.82 413.703 161.273C414.734 160.711 415.844 160.43 417.031 160.43C418.453 160.43 419.633 160.828 420.57 161.625C421.508 162.406 422.133 163.383 422.445 164.555C422.695 165.445 422.82 167.156 422.82 169.688V178.219C422.82 179.906 422.969 180.961 423.266 181.383C423.578 181.789 424.219 182.047 425.188 182.156V183H414.102V182.156C414.93 182.047 415.523 181.703 415.883 181.125C416.133 180.734 416.258 179.766 416.258 178.219V168.469C416.258 166.672 416.188 165.539 416.047 165.07C415.906 164.602 415.664 164.242 415.32 163.992C414.992 163.727 414.625 163.594 414.219 163.594C412.875 163.594 411.625 164.555 410.469 166.477V178.219C410.469 179.859 410.617 180.898 410.914 181.336C411.227 181.773 411.797 182.047 412.625 182.156V183H401.539V182.156C402.461 182.062 403.117 181.766 403.508 181.266C403.773 180.922 403.906 179.906 403.906 178.219V165.844C403.906 164.188 403.75 163.156 403.438 162.75C403.141 162.344 402.508 162.078 401.539 161.953V161.086H410.469ZM470.961 151.219V152.086C469.914 152.227 469.109 152.531 468.547 153C467.766 153.656 466.531 155.445 464.844 158.367L457.953 169.875V177.562C457.953 179.203 458.039 180.227 458.211 180.633C458.383 181.023 458.719 181.375 459.219 181.688C459.734 181.984 460.414 182.133 461.258 182.133H463.039V183H445.203V182.133H446.867C447.805 182.133 448.547 181.969 449.094 181.641C449.5 181.422 449.82 181.047 450.055 180.516C450.227 180.141 450.312 179.156 450.312 177.562V171.188L442.836 157.57C441.352 154.883 440.305 153.305 439.695 152.836C439.086 152.352 438.273 152.102 437.258 152.086V151.219H452.492V152.086H451.812C450.891 152.086 450.242 152.219 449.867 152.484C449.508 152.75 449.328 153.031 449.328 153.328C449.328 153.891 449.953 155.305 451.203 157.57L456.945 168.094L462.664 158.508C464.086 156.164 464.797 154.609 464.797 153.844C464.797 153.422 464.594 153.07 464.188 152.789C463.656 152.398 462.68 152.164 461.258 152.086V151.219H470.961ZM478.133 160.43C480.039 160.43 481.812 160.922 483.453 161.906C485.094 162.891 486.336 164.289 487.18 166.102C488.039 167.914 488.469 169.898 488.469 172.055C488.469 175.164 487.68 177.766 486.102 179.859C484.195 182.391 481.562 183.656 478.203 183.656C474.906 183.656 472.367 182.5 470.586 180.188C468.805 177.875 467.914 175.195 467.914 172.148C467.914 169.008 468.82 166.273 470.633 163.945C472.461 161.602 474.961 160.43 478.133 160.43ZM478.227 162.094C477.43 162.094 476.742 162.398 476.164 163.008C475.602 163.602 475.227 164.789 475.039 166.57C474.867 168.336 474.781 170.797 474.781 173.953C474.781 175.625 474.891 177.188 475.109 178.641C475.281 179.75 475.648 180.594 476.211 181.172C476.773 181.75 477.414 182.039 478.133 182.039C478.836 182.039 479.422 181.844 479.891 181.453C480.5 180.922 480.906 180.18 481.109 179.227C481.422 177.742 481.578 174.742 481.578 170.227C481.578 167.57 481.43 165.75 481.133 164.766C480.836 163.766 480.398 163.039 479.82 162.586C479.414 162.258 478.883 162.094 478.227 162.094ZM512.961 161.086V178.242C512.961 179.914 513.117 180.961 513.43 181.383C513.742 181.789 514.375 182.047 515.328 182.156V183H506.398V180.07C505.352 181.32 504.305 182.234 503.258 182.812C502.211 183.375 501.039 183.656 499.742 183.656C498.508 183.656 497.406 183.281 496.438 182.531C495.484 181.766 494.844 180.875 494.516 179.859C494.188 178.844 494.023 177.07 494.023 174.539V165.844C494.023 164.188 493.867 163.156 493.555 162.75C493.258 162.344 492.625 162.078 491.656 161.953V161.086H500.586V176.062C500.586 177.625 500.656 178.633 500.797 179.086C500.953 179.539 501.188 179.883 501.5 180.117C501.828 180.352 502.203 180.469 502.625 180.469C503.188 180.469 503.695 180.32 504.148 180.023C504.773 179.617 505.523 178.797 506.398 177.562V165.844C506.398 164.188 506.242 163.156 505.93 162.75C505.633 162.344 505 162.078 504.031 161.953V161.086H512.961ZM522.898 175.781C523.992 175.781 524.914 176.164 525.664 176.93C526.43 177.695 526.812 178.617 526.812 179.695C526.812 180.773 526.43 181.695 525.664 182.461C524.898 183.211 523.977 183.586 522.898 183.586C521.82 183.586 520.898 183.211 520.133 182.461C519.383 181.695 519.008 180.773 519.008 179.695C519.008 178.617 519.383 177.695 520.133 176.93C520.898 176.164 521.82 175.781 522.898 175.781Z" fill="#636363"/>
<defs>
<filter id="filter0_d" x="113.847" y="44.04" width="377.688" height="82.112" filterUnits="userSpaceOnUse" color-interpolation-filters="sRGB">
<feFlood flood-opacity="0" result="BackgroundImageFix"/>
<feColorMatrix in="SourceAlpha" type="matrix" values="0 0 0 0 0 0 0 0 0 0 0 0 0 0 0 0 0 0 127 0"/>
<feOffset dy="4"/>
<feGaussianBlur stdDeviation="2"/>
<feColorMatrix type="matrix" values="0 0 0 0 0 0 0 0 0 0 0 0 0 0 0 0 0 0 0.25 0"/>
<feBlend mode="normal" in2="BackgroundImageFix" result="effect1_dropShadow"/>
<feBlend mode="normal" in="SourceGraphic" in2="effect1_dropShadow" result="shape"/>
</filter>
</defs>
</svg>
